<?xml version="1.0" encoding="UTF-8" standalone="no"?>
<!DOCTYPE svg PUBLIC "-//W3C//DTD SVG 1.1//EN"
 "http://www.w3.org/Graphics/SVG/1.1/DTD/svg11.dtd">
<!-- Generated by graphviz version 2.36.0 (20140111.2315)
 -->
<!-- Title: %3 Pages: 1 -->
<svg width="710pt" height="656pt"
 viewBox="0.00 0.00 709.58 656.00" xmlns="http://www.w3.org/2000/svg" xmlns:xlink="http://www.w3.org/1999/xlink">
<g id="graph0" class="graph" transform="scale(1 1) rotate(0) translate(4 652)">
<title>%3</title>
<polygon fill="white" stroke="none" points="-4,4 -4,-652 705.577,-652 705.577,4 -4,4"/>
<text text-anchor="middle" x="350.789" y="-22.8" font-family="Times,serif" font-size="14.00"> </text>
<text text-anchor="middle" x="350.789" y="-7.8" font-family="Times,serif" font-size="14.00"> E&#45;R diagram</text>
<!-- user -->
<g id="node1" class="node"><title>user</title>
<polygon fill="none" stroke="black" points="387,-560.5 387,-647.5 476,-647.5 476,-560.5 387,-560.5"/>
<text text-anchor="start" x="420" y="-632.3" font-family="Times,serif" font-size="14.00">user</text>
<polyline fill="none" stroke="black" points="387,-624.5 476,-624.5 "/>
<text text-anchor="start" x="419" y="-610.3" font-family="Times,serif" text-decoration="underline" font-size="14.00">u_id</text>
<text text-anchor="start" x="409.5" y="-596.3" font-family="Times,serif" font-size="14.00">u_name</text>
<text text-anchor="start" x="395" y="-582.3" font-family="Times,serif" font-size="14.00">creation_date</text>
<text text-anchor="start" x="409.5" y="-568.3" font-family="Times,serif" font-size="14.00">location</text>
</g>
<!-- author -->
<g id="node9" class="node"><title>author</title>
<polygon fill="none" stroke="black" points="451.5,-522 404.746,-504 451.5,-486 498.254,-504 451.5,-522"/>
<text text-anchor="middle" x="451.5" y="-500.3" font-family="Times,serif" font-size="14.00">author</text>
</g>
<!-- user&#45;&#45;author -->
<g id="edge7" class="edge"><title>user&#45;&#45;author</title>
<path fill="none" stroke="black" d="M440.214,-560.429C442.993,-546.534 445.907,-531.966 448.078,-521.112"/>
</g>
<!-- post_comment -->
<g id="node10" class="node"><title>post_comment</title>
<polygon fill="none" stroke="black" points="611.5,-522 521.345,-504 611.5,-486 701.655,-504 611.5,-522"/>
<text text-anchor="middle" x="611.5" y="-500.3" font-family="Times,serif" font-size="14.00">post_comment</text>
</g>
<!-- user&#45;&#45;post_comment -->
<g id="edge8" class="edge"><title>user&#45;&#45;post_comment</title>
<path fill="none" stroke="black" d="M476.457,-579.024C511.653,-559.47 559.232,-533.038 587.506,-517.33"/>
</g>
<!-- post -->
<g id="node2" class="node"><title>post</title>
<polygon fill="none" stroke="black" points="397.5,-360.5 397.5,-447.5 465.5,-447.5 465.5,-360.5 397.5,-360.5"/>
<text text-anchor="start" x="420" y="-432.3" font-family="Times,serif" font-size="14.00">post</text>
<polyline fill="none" stroke="black" points="397.5,-424.5 465.5,-424.5 "/>
<text text-anchor="start" x="419" y="-410.3" font-family="Times,serif" text-decoration="underline" font-size="14.00">p_id</text>
<text text-anchor="start" x="405.5" y="-396.3" font-family="Times,serif" font-size="14.00">post_date</text>
<text text-anchor="start" x="420.5" y="-382.3" font-family="Times,serif" font-size="14.00">title</text>
<text text-anchor="start" x="417.5" y="-368.3" font-family="Times,serif" font-size="14.00">body</text>
</g>
<!-- tag -->
<g id="node3" class="node"><title>tag</title>
<polygon fill="none" stroke="black" points="203,-54.5 203,-113.5 260,-113.5 260,-54.5 203,-54.5"/>
<text text-anchor="start" x="223" y="-98.3" font-family="Times,serif" font-size="14.00">tag</text>
<polyline fill="none" stroke="black" points="203,-90.5 260,-90.5 "/>
<text text-anchor="start" x="220.5" y="-76.3" font-family="Times,serif" text-decoration="underline" font-size="14.00">t_id</text>
<text text-anchor="start" x="211" y="-62.3" font-family="Times,serif" font-size="14.00">t_name</text>
</g>
<!-- posttag -->
<g id="node12" class="node"><title>posttag</title>
<polygon fill="none" stroke="black" points="231.5,-162 180.054,-144 231.5,-126 282.946,-144 231.5,-162"/>
<text text-anchor="middle" x="231.5" y="-140.3" font-family="Times,serif" font-size="14.00">posttag</text>
</g>
<!-- tag&#45;&#45;posttag -->
<g id="edge1" class="edge"><title>tag&#45;&#45;posttag</title>
<path fill="none" stroke="black" d="M231.5,-113.648C231.5,-117.782 231.5,-121.924 231.5,-125.761"/>
</g>
<!-- question -->
<g id="node4" class="node"><title>question</title>
<polygon fill="none" stroke="black" points="200.5,-181 200.5,-227 262.5,-227 262.5,-181 200.5,-181"/>
<text text-anchor="start" x="208.5" y="-211.8" font-family="Times,serif" font-size="14.00">question</text>
<polyline fill="none" stroke="black" points="200.5,-204 262.5,-204 "/>
<text text-anchor="start" x="219" y="-189.8" font-family="Times,serif" text-decoration="underline" font-size="14.00">q_id</text>
</g>
<!-- favorite -->
<g id="node11" class="node"><title>favorite</title>
<polygon fill="none" stroke="black" points="141.5,-472 87.0385,-454 141.5,-436 195.962,-454 141.5,-472"/>
<text text-anchor="middle" x="141.5" y="-450.3" font-family="Times,serif" font-size="14.00">favorite</text>
</g>
<!-- question&#45;&#45;favorite -->
<g id="edge3" class="edge"><title>question&#45;&#45;favorite</title>
<path fill="none" stroke="black" d="M223.194,-227.071C205.179,-277.115 162.884,-394.6 147.353,-437.741"/>
</g>
<!-- question_is -->
<g id="node13" class="node"><title>question_is</title>
<polygon fill="none" stroke="black" points="291.5,-322 219.611,-304 291.5,-286 363.389,-304 291.5,-322"/>
<text text-anchor="middle" x="291.5" y="-300.3" font-family="Times,serif" font-size="14.00">question_is</text>
</g>
<!-- question&#45;&#45;question_is -->
<g id="edge16" class="edge"><title>question&#45;&#45;question_is</title>
<path fill="none" stroke="black" d="M247.131,-226.164C258.347,-244.858 273.822,-270.65 283.675,-287.07"/>
<path fill="none" stroke="white" d="M245.416,-227.193C256.632,-245.887 272.107,-271.679 281.96,-288.099"/>
<path fill="none" stroke="black" d="M243.701,-228.222C254.917,-246.916 270.392,-272.708 280.245,-289.128"/>
</g>
<!-- answer -->
<g id="node5" class="node"><title>answer</title>
<polygon fill="none" stroke="black" points="624,-181 624,-227 679,-227 679,-181 624,-181"/>
<text text-anchor="start" x="632" y="-211.8" font-family="Times,serif" font-size="14.00">answer</text>
<polyline fill="none" stroke="black" points="624,-204 679,-204 "/>
<text text-anchor="start" x="639.5" y="-189.8" font-family="Times,serif" text-decoration="underline" font-size="14.00">a_id</text>
</g>
<!-- answer_is -->
<g id="node14" class="node"><title>answer_is</title>
<polygon fill="none" stroke="black" points="581.5,-322 516.479,-304 581.5,-286 646.521,-304 581.5,-322"/>
<text text-anchor="middle" x="581.5" y="-300.3" font-family="Times,serif" font-size="14.00">answer_is</text>
</g>
<!-- answer&#45;&#45;answer_is -->
<g id="edge17" class="edge"><title>answer&#45;&#45;answer_is</title>
<path fill="none" stroke="black" d="M636.903,-228.34C623.656,-247.265 605.317,-273.464 593.846,-289.85"/>
<path fill="none" stroke="white" d="M635.265,-227.193C622.017,-246.118 603.678,-272.317 592.208,-288.703"/>
<path fill="none" stroke="black" d="M633.626,-226.046C620.379,-244.971 602.04,-271.17 590.569,-287.556"/>
</g>
<!-- QA -->
<g id="node16" class="node"><title>QA</title>
<polygon fill="none" stroke="black" points="431.5,-212 398.32,-194 431.5,-176 464.68,-194 431.5,-212"/>
<text text-anchor="middle" x="431.5" y="-190.3" font-family="Times,serif" font-size="14.00">QA</text>
</g>
<!-- answer&#45;&#45;QA -->
<g id="edge18" class="edge"><title>answer&#45;&#45;QA</title>
<path fill="none" stroke="black" d="M623.546,-204.731C582.269,-202.855 505.141,-199.349 462.225,-197.399"/>
<path fill="none" stroke="white" d="M623.637,-202.733C582.359,-200.857 505.232,-197.351 462.316,-195.401"/>
<path fill="none" stroke="black" d="M623.728,-200.736C582.45,-198.859 505.323,-195.354 462.407,-193.403"/>
</g>
<!-- comment -->
<g id="node6" class="node"><title>comment</title>
<polygon fill="none" stroke="black" points="577.5,-567.5 577.5,-640.5 645.5,-640.5 645.5,-567.5 577.5,-567.5"/>
<text text-anchor="start" x="585.5" y="-625.3" font-family="Times,serif" font-size="14.00">comment</text>
<polyline fill="none" stroke="black" points="577.5,-617.5 645.5,-617.5 "/>
<text text-anchor="start" x="599.5" y="-603.3" font-family="Times,serif" text-decoration="underline" font-size="14.00">c_id</text>
<text text-anchor="start" x="585.5" y="-589.3" font-family="Times,serif" font-size="14.00">post_date</text>
<text text-anchor="start" x="591.5" y="-575.3" font-family="Times,serif" font-size="14.00">content</text>
</g>
<!-- vote_box -->
<g id="node7" class="node"><title>vote_box</title>
<polygon fill="none" stroke="black" points="216.5,-467.5 216.5,-540.5 286.5,-540.5 286.5,-467.5 216.5,-467.5"/>
<text text-anchor="start" x="239.5" y="-525.3" font-family="Times,serif" font-size="14.00">vote</text>
<polyline fill="none" stroke="black" points="216.5,-517.5 286.5,-517.5 "/>
<text text-anchor="start" x="239" y="-503.3" font-family="Times,serif" text-decoration="underline" font-size="14.00">v_id</text>
<text text-anchor="start" x="224.5" y="-489.3" font-family="Times,serif" font-size="14.00">vote_type</text>
<text text-anchor="start" x="225" y="-475.3" font-family="Times,serif" font-size="14.00">vote_date</text>
</g>
<!-- vote -->
<g id="node8" class="node"><title>vote</title>
<polygon fill="none" stroke="black" points="351.5,-522 314.966,-504 351.5,-486 388.034,-504 351.5,-522"/>
<text text-anchor="middle" x="351.5" y="-500.3" font-family="Times,serif" font-size="14.00">vote</text>
</g>
<!-- vote&#45;&#45;user -->
<g id="edge5" class="edge"><title>vote&#45;&#45;user</title>
<path fill="none" stroke="black" d="M361.959,-517.073C370.768,-528.085 383.897,-544.496 396.382,-560.102"/>
</g>
<!-- vote&#45;&#45;post -->
<g id="edge6" class="edge"><title>vote&#45;&#45;post</title>
<path fill="none" stroke="black" d="M361.959,-490.927C371.022,-479.597 384.658,-462.553 397.46,-446.549"/>
</g>
<!-- vote&#45;&#45;vote_box -->
<g id="edge20" class="edge"><title>vote&#45;&#45;vote_box</title>
<path fill="none" stroke="black" d="M314.832,-506C305.69,-506 295.907,-506 286.831,-506"/>
<path fill="none" stroke="white" d="M314.832,-504C305.69,-504 295.907,-504 286.831,-504"/>
<path fill="none" stroke="black" d="M314.832,-502C305.69,-502 295.907,-502 286.831,-502"/>
</g>
<!-- author&#45;&#45;post -->
<g id="edge15" class="edge"><title>author&#45;&#45;post</title>
<path fill="none" stroke="black" d="M446.146,-487.429C444.491,-479.152 442.398,-468.689 440.261,-458.005"/>
<path fill="none" stroke="white" d="M448.107,-487.036C446.452,-478.76 444.359,-468.297 442.223,-457.613"/>
<path fill="none" stroke="black" d="M450.068,-486.644C448.413,-478.367 446.321,-467.905 444.184,-457.221"/>
<polygon fill="black" stroke="black" points="445.652,-456.915 440.259,-447.796 438.788,-458.288 445.652,-456.915"/>
</g>
<!-- post_comment&#45;&#45;post -->
<g id="edge9" class="edge"><title>post_comment&#45;&#45;post</title>
<path fill="none" stroke="black" d="M587.597,-490.721C556.326,-473.348 501.326,-442.792 465.663,-422.98"/>
</g>
<!-- post_comment&#45;&#45;comment -->
<g id="edge19" class="edge"><title>post_comment&#45;&#45;comment</title>
<path fill="none" stroke="black" d="M613.5,-522.342C613.5,-534.859 613.5,-551.874 613.5,-567.132"/>
<path fill="none" stroke="white" d="M611.5,-522.342C611.5,-534.859 611.5,-551.874 611.5,-567.132"/>
<path fill="none" stroke="black" d="M609.5,-522.342C609.5,-534.859 609.5,-551.874 609.5,-567.132"/>
</g>
<!-- favorite&#45;&#45;user -->
<g id="edge4" class="edge"><title>favorite&#45;&#45;user</title>
<path fill="none" stroke="black" d="M149.762,-469.488C161.303,-489.627 184.153,-524.491 213.3,-543.7 266.626,-578.844 340.172,-593.668 386.781,-599.809"/>
</g>
<!-- posttag&#45;&#45;question -->
<g id="edge2" class="edge"><title>posttag&#45;&#45;question</title>
<path fill="none" stroke="black" d="M231.5,-162.002C231.5,-167.939 231.5,-174.627 231.5,-180.891"/>
</g>
<!-- question_is&#45;&#45;post -->
<g id="edge13" class="edge"><title>question_is&#45;&#45;post</title>
<path fill="none" stroke="black" d="M310.381,-317.486C330.451,-331.822 362.847,-354.962 389.087,-373.705"/>
<polygon fill="black" stroke="black" points="387.195,-376.655 397.367,-379.619 391.264,-370.959 387.195,-376.655"/>
</g>
<!-- answer_is&#45;&#45;post -->
<g id="edge14" class="edge"><title>answer_is&#45;&#45;post</title>
<path fill="none" stroke="black" d="M562.197,-316.869C540.016,-331.656 502.944,-356.37 473.937,-375.709"/>
<polygon fill="black" stroke="black" points="471.984,-372.804 465.605,-381.264 475.867,-378.629 471.984,-372.804"/>
</g>
<!-- accept -->
<g id="node15" class="node"><title>accept</title>
<polygon fill="none" stroke="black" points="431.5,-257 384.746,-239 431.5,-221 478.254,-239 431.5,-257"/>
<text text-anchor="middle" x="431.5" y="-235.3" font-family="Times,serif" font-size="14.00">accept</text>
</g>
<!-- accept&#45;&#45;question -->
<g id="edge10" class="edge"><title>accept&#45;&#45;question</title>
<path fill="none" stroke="black" d="M398.921,-233.299C364.522,-227.279 310.198,-217.772 272.812,-211.23"/>
<polygon fill="black" stroke="black" points="273.2,-207.744 262.747,-209.468 271.994,-214.64 273.2,-207.744"/>
</g>
<!-- accept&#45;&#45;answer -->
<g id="edge12" class="edge"><title>accept&#45;&#45;answer</title>
<path fill="none" stroke="black" d="M464.913,-233.684C504.917,-227.32 571.748,-216.688 613.629,-210.025"/>
<polygon fill="black" stroke="black" points="614.382,-213.449 623.708,-208.421 613.283,-206.536 614.382,-213.449"/>
</g>
<!-- QA&#45;&#45;question -->
<g id="edge11" class="edge"><title>QA&#45;&#45;question</title>
<path fill="none" stroke="black" d="M400.688,-195.541C366.435,-197.253 310.937,-200.028 272.907,-201.93"/>
<polygon fill="black" stroke="black" points="272.489,-198.446 262.676,-202.441 272.839,-205.437 272.489,-198.446"/>
</g>
<!-- fav_date -->
<g id="node17" class="node"><title>fav_date</title>
<polygon fill="none" stroke="black" points="63,-472 0,-472 0,-436 63,-436 63,-472"/>
<text text-anchor="middle" x="31.5" y="-450.3" font-family="Times,serif" font-size="14.00">fav_date</text>
</g>
<!-- fav_date&#45;&#45;favorite -->
<g id="edge21" class="edge"><title>fav_date&#45;&#45;favorite</title>
<path fill="none" stroke="black" stroke-dasharray="5,2" d="M63.0216,-454C70.5129,-454 78.7197,-454 86.9142,-454"/>
</g>
</g>
</svg>
