<?xml version="1.0" encoding="UTF-8" standalone="no"?>
<!DOCTYPE svg PUBLIC "-//W3C//DTD SVG 1.1//EN"
 "http://www.w3.org/Graphics/SVG/1.1/DTD/svg11.dtd">
<!-- Generated by graphviz version 2.36.0 (20140111.2315)
 -->
<!-- Title: %3 Pages: 1 -->
<svg width="473pt" height="573pt"
 viewBox="0.00 0.00 473.00 573.00" xmlns="http://www.w3.org/2000/svg" xmlns:xlink="http://www.w3.org/1999/xlink">
<g id="graph0" class="graph" transform="scale(1 1) rotate(0) translate(4 569)">
<title>%3</title>
<polygon fill="white" stroke="none" points="-4,4 -4,-569 469,-569 469,4 -4,4"/>
<text text-anchor="middle" x="232.5" y="-7.8" font-family="Times,serif" font-size="14.00"> Problem 2</text>
<!-- employee -->
<g id="node1" class="node"><title>employee</title>
<polygon fill="none" stroke="black" points="112.5,-405.5 112.5,-492.5 213.5,-492.5 213.5,-405.5 112.5,-405.5"/>
<text text-anchor="start" x="136" y="-477.3" font-family="Times,serif" font-size="14.00">employee</text>
<polyline fill="none" stroke="black" points="112.5,-469.5 213.5,-469.5 "/>
<text text-anchor="start" x="120.5" y="-455.3" font-family="Times,serif" text-decoration="underline" font-size="14.00">employee_num</text>
<text text-anchor="start" x="147.5" y="-441.3" font-family="Times,serif" font-size="14.00">name</text>
<text text-anchor="start" x="135.5" y="-427.3" font-family="Times,serif" font-size="14.00">birth_date</text>
<text text-anchor="start" x="140" y="-413.3" font-family="Times,serif" font-size="14.00">job_title</text>
</g>
<!-- work -->
<g id="node8" class="node"><title>work</title>
<polygon fill="none" stroke="black" points="159,-187 118.835,-169 159,-151 199.165,-169 159,-187"/>
<text text-anchor="middle" x="159" y="-165.3" font-family="Times,serif" font-size="14.00">work</text>
</g>
<!-- employee&#45;&#45;work -->
<g id="edge2" class="edge"><title>employee&#45;&#45;work</title>
<path fill="none" stroke="black" d="M162.388,-405.475C161.493,-343.266 159.866,-230.183 159.248,-187.202"/>
</g>
<!-- have -->
<g id="node9" class="node"><title>have</title>
<polygon fill="none" stroke="black" points="96,-369 57.5936,-351 96,-333 134.406,-351 96,-369"/>
<text text-anchor="middle" x="96" y="-347.3" font-family="Times,serif" font-size="14.00">have</text>
</g>
<!-- employee&#45;&#45;have -->
<g id="edge5" class="edge"><title>employee&#45;&#45;have</title>
<path fill="none" stroke="black" d="M133.223,-405.334C123.017,-390.712 112.346,-375.421 105.059,-364.98"/>
</g>
<!-- use_on -->
<g id="node10" class="node"><title>use_on</title>
<polygon fill="none" stroke="black" points="50,-187 -0.330237,-169 50,-151 100.33,-169 50,-187"/>
<text text-anchor="middle" x="50" y="-165.3" font-family="Times,serif" font-size="14.00">use_on</text>
</g>
<!-- employee&#45;&#45;use_on -->
<g id="edge4" class="edge"><title>employee&#45;&#45;use_on</title>
<path fill="none" stroke="black" d="M112.474,-427.061C88.3062,-414.161 61.706,-395.044 48,-369 15.7385,-307.697 35.2384,-220.352 45.2098,-185.36"/>
</g>
<!-- report -->
<g id="node11" class="node"><title>report</title>
<polygon fill="none" stroke="black" points="385,-369 339.942,-351 385,-333 430.058,-351 385,-369"/>
<text text-anchor="middle" x="385" y="-347.3" font-family="Times,serif" font-size="14.00">report</text>
</g>
<!-- employee&#45;&#45;report -->
<g id="edge8" class="edge"><title>employee&#45;&#45;report</title>
<path fill="none" stroke="black" d="M213.528,-409.67C216.344,-408.011 219.178,-406.441 222,-405 246.515,-392.483 320.722,-370.379 359.998,-359.08"/>
</g>
<!-- assign_at -->
<g id="node13" class="node"><title>assign_at</title>
<polygon fill="none" stroke="black" points="253,-369 191.625,-351 253,-333 314.375,-351 253,-369"/>
<text text-anchor="middle" x="253" y="-347.3" font-family="Times,serif" font-size="14.00">assign_at</text>
</g>
<!-- employee&#45;&#45;assign_at -->
<g id="edge1" class="edge"><title>employee&#45;&#45;assign_at</title>
<path fill="none" stroke="black" d="M202.999,-405.334C216.52,-390.912 230.651,-375.839 240.427,-365.412"/>
</g>
<!-- department -->
<g id="node2" class="node"><title>department</title>
<polygon fill="none" stroke="black" points="347.5,-230.5 347.5,-289.5 428.5,-289.5 428.5,-230.5 347.5,-230.5"/>
<text text-anchor="start" x="357" y="-274.3" font-family="Times,serif" font-size="14.00">department</text>
<polyline fill="none" stroke="black" points="347.5,-266.5 428.5,-266.5 "/>
<text text-anchor="start" x="372.5" y="-252.3" font-family="Times,serif" text-decoration="underline" font-size="14.00">name</text>
<text text-anchor="start" x="355.5" y="-238.3" font-family="Times,serif" font-size="14.00">phone_num</text>
</g>
<!-- deal -->
<g id="node12" class="node"><title>deal</title>
<polygon fill="none" stroke="black" points="388,-187 352.727,-169 388,-151 423.273,-169 388,-187"/>
<text text-anchor="middle" x="388" y="-165.3" font-family="Times,serif" font-size="14.00">deal</text>
</g>
<!-- department&#45;&#45;deal -->
<g id="edge16" class="edge"><title>department&#45;&#45;deal</title>
<path fill="none" stroke="black" d="M386,-230.35C386,-216.122 386,-199.407 386,-187.18"/>
<path fill="none" stroke="white" d="M388,-230.35C388,-216.122 388,-199.407 388,-187.18"/>
<path fill="none" stroke="black" d="M390,-230.35C390,-216.122 390,-199.407 390,-187.18"/>
</g>
<!-- vendor -->
<g id="node3" class="node"><title>vendor</title>
<polygon fill="none" stroke="black" points="407.5,-55.5 407.5,-114.5 464.5,-114.5 464.5,-55.5 407.5,-55.5"/>
<text text-anchor="start" x="417" y="-99.3" font-family="Times,serif" font-size="14.00">vendor</text>
<polyline fill="none" stroke="black" points="407.5,-91.5 464.5,-91.5 "/>
<text text-anchor="start" x="420.5" y="-77.3" font-family="Times,serif" text-decoration="underline" font-size="14.00">name</text>
<text text-anchor="start" x="415.5" y="-63.3" font-family="Times,serif" font-size="14.00">address</text>
</g>
<!-- project -->
<g id="node4" class="node"><title>project</title>
<polygon fill="none" stroke="black" points="110,-55.5 110,-114.5 208,-114.5 208,-55.5 110,-55.5"/>
<text text-anchor="start" x="140" y="-99.3" font-family="Times,serif" font-size="14.00">project</text>
<polyline fill="none" stroke="black" points="110,-91.5 208,-91.5 "/>
<text text-anchor="start" x="124" y="-77.3" font-family="Times,serif" text-decoration="underline" font-size="14.00">project_num</text>
<text text-anchor="start" x="118" y="-63.3" font-family="Times,serif" font-size="14.00">estimated_cost</text>
</g>
<!-- city -->
<g id="node5" class="node"><title>city</title>
<polygon fill="none" stroke="black" points="255,-223.5 255,-296.5 329,-296.5 329,-223.5 255,-223.5"/>
<text text-anchor="start" x="281.5" y="-281.3" font-family="Times,serif" font-size="14.00">city</text>
<polyline fill="none" stroke="black" points="255,-273.5 329,-273.5 "/>
<text text-anchor="start" x="276.5" y="-259.3" font-family="Times,serif" text-decoration="underline" font-size="14.00">name</text>
<text text-anchor="start" x="279.5" y="-245.3" font-family="Times,serif" font-size="14.00">state</text>
<text text-anchor="start" x="263" y="-231.3" font-family="Times,serif" font-size="14.00">population</text>
</g>
<!-- skill -->
<g id="node6" class="node"><title>skill</title>
<polygon fill="none" stroke="black" points="57.5,-230.5 57.5,-289.5 134.5,-289.5 134.5,-230.5 57.5,-230.5"/>
<text text-anchor="start" x="84" y="-274.3" font-family="Times,serif" font-size="14.00">skill</text>
<polyline fill="none" stroke="black" points="57.5,-266.5 134.5,-266.5 "/>
<text text-anchor="start" x="68.5" y="-252.3" font-family="Times,serif" text-decoration="underline" font-size="14.00">skill_num</text>
<text text-anchor="start" x="65.5" y="-238.3" font-family="Times,serif" font-size="14.00">description</text>
</g>
<!-- skill&#45;&#45;use_on -->
<g id="edge7" class="edge"><title>skill&#45;&#45;use_on</title>
<path fill="none" stroke="black" d="M81.1921,-230.35C73.3129,-215.105 63.9581,-197.006 57.5621,-184.631"/>
</g>
<!-- marry -->
<g id="node7" class="node"><title>marry</title>
<polygon fill="none" stroke="black" points="163,-565 117.563,-547 163,-529 208.437,-547 163,-565"/>
<text text-anchor="middle" x="163" y="-543.3" font-family="Times,serif" font-size="14.00">marry</text>
</g>
<!-- marry&#45;&#45;employee -->
<g id="edge12" class="edge"><title>marry&#45;&#45;employee</title>
<path fill="none" stroke="black" d="M157.938,-531C156.969,-523.248 156.417,-513.27 156.282,-502.984"/>
<polygon fill="black" stroke="black" points="159.782,-502.668 156.287,-492.666 152.782,-502.664 159.782,-502.668"/>
</g>
<!-- marry&#45;&#45;employee -->
<g id="edge13" class="edge"><title>marry&#45;&#45;employee</title>
<path fill="none" stroke="black" d="M168.062,-531C169.031,-523.248 169.583,-513.27 169.718,-502.984"/>
<polygon fill="black" stroke="black" points="173.218,-502.664 169.713,-492.666 166.218,-502.668 173.218,-502.664"/>
</g>
<!-- marry_date -->
<g id="node15" class="node"><title>marry_date</title>
<polygon fill="none" stroke="black" points="310.25,-467 231.75,-467 231.75,-431 310.25,-431 310.25,-467"/>
<text text-anchor="middle" x="271" y="-445.3" font-family="Times,serif" font-size="14.00">marry_date</text>
</g>
<!-- marry&#45;&#45;marry_date -->
<g id="edge17" class="edge"><title>marry&#45;&#45;marry_date</title>
<path fill="none" stroke="black" stroke-dasharray="5,2" d="M176.243,-534.229C195.169,-517.406 230.063,-486.389 251.816,-467.052"/>
</g>
<!-- work&#45;&#45;project -->
<g id="edge3" class="edge"><title>work&#45;&#45;project</title>
<path fill="none" stroke="black" d="M159,-150.61C159,-140.173 159,-126.64 159,-114.658"/>
</g>
<!-- have&#45;&#45;skill -->
<g id="edge6" class="edge"><title>have&#45;&#45;skill</title>
<path fill="none" stroke="black" d="M96,-332.84C96,-320.616 96,-303.898 96,-289.665"/>
</g>
<!-- use_on&#45;&#45;project -->
<g id="edge15" class="edge"><title>use_on&#45;&#45;project</title>
<path fill="none" stroke="black" d="M64.4147,-154.653C78.778,-143.848 100.66,-127.386 119.632,-113.114"/>
<path fill="none" stroke="white" d="M65.617,-156.251C79.9804,-145.446 101.862,-128.985 120.834,-114.712"/>
<path fill="none" stroke="black" d="M66.8194,-157.85C81.1827,-147.044 103.064,-130.583 122.036,-116.31"/>
</g>
<!-- report&#45;&#45;department -->
<g id="edge14" class="edge"><title>report&#45;&#45;department</title>
<path fill="none" stroke="black" d="M385.578,-332.84C385.894,-323.481 386.298,-311.488 386.686,-299.992"/>
<polygon fill="black" stroke="black" points="390.195,-299.778 387.034,-289.665 383.199,-299.542 390.195,-299.778"/>
</g>
<!-- deal&#45;&#45;vendor -->
<g id="edge9" class="edge"><title>deal&#45;&#45;vendor</title>
<path fill="none" stroke="black" d="M395.712,-154.825C402.019,-144.05 411.168,-128.421 419.154,-114.779"/>
</g>
<!-- last_meet_date -->
<g id="node14" class="node"><title>last_meet_date</title>
<polygon fill="none" stroke="black" points="388.5,-103 291.5,-103 291.5,-67 388.5,-67 388.5,-103"/>
<text text-anchor="middle" x="340" y="-81.3" font-family="Times,serif" font-size="14.00">last_meet_date</text>
</g>
<!-- deal&#45;&#45;last_meet_date -->
<g id="edge18" class="edge"><title>deal&#45;&#45;last_meet_date</title>
<path fill="none" stroke="black" stroke-dasharray="5,2" d="M380.288,-154.825C372.073,-140.791 359.036,-118.52 350.029,-103.132"/>
</g>
<!-- assign_at&#45;&#45;project -->
<g id="edge11" class="edge"><title>assign_at&#45;&#45;project</title>
<path fill="none" stroke="black" d="M250.225,-333.678C243.037,-292.259 223.31,-184.018 208,-151 203.495,-141.284 197.363,-131.625 190.963,-122.84"/>
<polygon fill="black" stroke="black" points="193.624,-120.557 184.788,-114.711 188.05,-124.792 193.624,-120.557"/>
</g>
<!-- assign_at&#45;&#45;city -->
<g id="edge10" class="edge"><title>assign_at&#45;&#45;city</title>
<path fill="none" stroke="black" d="M259.616,-334.902C263.179,-326.771 267.782,-316.268 272.392,-305.746"/>
<polygon fill="black" stroke="black" points="275.612,-307.119 276.42,-296.555 269.2,-304.309 275.612,-307.119"/>
</g>
</g>
</svg>
