<?xml version="1.0" encoding="UTF-8" standalone="no"?>
<!DOCTYPE svg PUBLIC "-//W3C//DTD SVG 1.1//EN"
 "http://www.w3.org/Graphics/SVG/1.1/DTD/svg11.dtd">
<!-- Generated by graphviz version 2.36.0 (20140111.2315)
 -->
<!-- Title: %3 Pages: 1 -->
<svg width="793pt" height="1062pt"
 viewBox="0.00 0.00 793.00 1062.00" xmlns="http://www.w3.org/2000/svg" xmlns:xlink="http://www.w3.org/1999/xlink">
<g id="graph0" class="graph" transform="scale(1 1) rotate(0) translate(4 1058)">
<title>%3</title>
<polygon fill="white" stroke="none" points="-4,4 -4,-1058 789,-1058 789,4 -4,4"/>
<text text-anchor="middle" x="392.5" y="-22.8" font-family="Times,serif" font-size="14.00"> Problem 3</text>
<text text-anchor="middle" x="392.5" y="-7.8" font-family="Times,serif" font-size="14.00"> (Assume &quot;order line&quot; is a typo, and a given customer order must request at least one product and only one product per product line)</text>
<!-- raw_material -->
<g id="node1" class="node"><title>raw_material</title>
<polygon fill="none" stroke="black" points="164,-856.5 164,-943.5 272,-943.5 272,-856.5 164,-856.5"/>
<text text-anchor="start" x="181.5" y="-928.3" font-family="Times,serif" font-size="14.00">raw_material</text>
<polyline fill="none" stroke="black" points="164,-920.5 272,-920.5 "/>
<text text-anchor="start" x="210.5" y="-906.3" font-family="Times,serif" text-decoration="underline" font-size="14.00">ID</text>
<text text-anchor="start" x="172" y="-892.3" font-family="Times,serif" font-size="14.00">unit_of_measure</text>
<text text-anchor="start" x="202.5" y="-878.3" font-family="Times,serif" font-size="14.00">name</text>
<text text-anchor="start" x="207" y="-864.3" font-family="Times,serif" font-size="14.00">cost</text>
</g>
<!-- supply -->
<g id="node14" class="node"><title>supply</title>
<polygon fill="none" stroke="black" points="123,-794 74.4276,-776 123,-758 171.572,-776 123,-794"/>
<text text-anchor="middle" x="123" y="-772.3" font-family="Times,serif" font-size="14.00">supply</text>
</g>
<!-- raw_material&#45;&#45;supply -->
<g id="edge33" class="edge"><title>raw_material&#45;&#45;supply</title>
<path fill="none" stroke="black" d="M183.196,-857.559C165.11,-834.334 143.982,-807.201 131.71,-791.441"/>
<path fill="none" stroke="white" d="M184.774,-856.33C166.688,-833.105 145.56,-805.972 133.288,-790.212"/>
<path fill="none" stroke="black" d="M186.352,-855.102C168.266,-831.876 147.138,-804.743 134.866,-788.983"/>
</g>
<!-- vendor -->
<g id="node2" class="node"><title>vendor</title>
<polygon fill="none" stroke="black" points="88.5,-863.5 88.5,-936.5 145.5,-936.5 145.5,-863.5 88.5,-863.5"/>
<text text-anchor="start" x="98" y="-921.3" font-family="Times,serif" font-size="14.00">vendor</text>
<polyline fill="none" stroke="black" points="88.5,-913.5 145.5,-913.5 "/>
<text text-anchor="start" x="109.5" y="-899.3" font-family="Times,serif" text-decoration="underline" font-size="14.00">ID</text>
<text text-anchor="start" x="101.5" y="-885.3" font-family="Times,serif" font-size="14.00">name</text>
<text text-anchor="start" x="96.5" y="-871.3" font-family="Times,serif" font-size="14.00">address</text>
</g>
<!-- vendor&#45;&#45;supply -->
<g id="edge8" class="edge"><title>vendor&#45;&#45;supply</title>
<path fill="none" stroke="black" d="M118.752,-863.385C119.879,-840.456 121.293,-811.705 122.172,-793.84"/>
</g>
<!-- sales_territory -->
<g id="node3" class="node"><title>sales_territory</title>
<polygon fill="none" stroke="black" points="562,-636.5 562,-695.5 656,-695.5 656,-636.5 562,-636.5"/>
<text text-anchor="start" x="570" y="-680.3" font-family="Times,serif" font-size="14.00">sales_territory</text>
<polyline fill="none" stroke="black" points="562,-672.5 656,-672.5 "/>
<text text-anchor="start" x="601.5" y="-658.3" font-family="Times,serif" text-decoration="underline" font-size="14.00">ID</text>
<text text-anchor="start" x="593.5" y="-644.3" font-family="Times,serif" font-size="14.00">name</text>
</g>
<!-- business -->
<g id="node16" class="node"><title>business</title>
<polygon fill="none" stroke="black" points="614,-588 557.518,-570 614,-552 670.482,-570 614,-588"/>
<text text-anchor="middle" x="614" y="-566.3" font-family="Times,serif" font-size="14.00">business</text>
</g>
<!-- sales_territory&#45;&#45;business -->
<g id="edge21" class="edge"><title>sales_territory&#45;&#45;business</title>
<path fill="none" stroke="black" d="M608.53,-636.18C609.374,-620.306 610.394,-601.136 611.109,-587.689"/>
<path fill="none" stroke="white" d="M610.527,-636.286C611.372,-620.413 612.391,-601.242 613.107,-587.795"/>
<path fill="none" stroke="black" d="M612.525,-636.392C613.369,-620.519 614.389,-601.348 615.104,-587.901"/>
</g>
<!-- sales_people -->
<g id="node4" class="node"><title>sales_people</title>
<polygon fill="none" stroke="black" points="572,-863.5 572,-936.5 658,-936.5 658,-863.5 572,-863.5"/>
<text text-anchor="start" x="580" y="-921.3" font-family="Times,serif" font-size="14.00">sales_people</text>
<polyline fill="none" stroke="black" points="572,-913.5 658,-913.5 "/>
<text text-anchor="start" x="607.5" y="-899.3" font-family="Times,serif" text-decoration="underline" font-size="14.00">ID</text>
<text text-anchor="start" x="605.5" y="-885.3" font-family="Times,serif" font-size="14.00">Tel</text>
<text text-anchor="start" x="604.5" y="-871.3" font-family="Times,serif" font-size="14.00">Fax</text>
</g>
<!-- serve -->
<g id="node15" class="node"><title>serve</title>
<polygon fill="none" stroke="black" points="598,-794 556.956,-776 598,-758 639.044,-776 598,-794"/>
<text text-anchor="middle" x="598" y="-772.3" font-family="Times,serif" font-size="14.00">serve</text>
</g>
<!-- sales_people&#45;&#45;serve -->
<g id="edge20" class="edge"><title>sales_people&#45;&#45;serve</title>
<path fill="none" stroke="black" d="M608.056,-863.661C604.822,-840.451 600.757,-811.274 598.275,-793.464"/>
<path fill="none" stroke="white" d="M610.037,-863.385C606.803,-840.175 602.737,-810.998 600.256,-793.188"/>
<path fill="none" stroke="black" d="M612.018,-863.109C608.784,-839.899 604.718,-810.722 602.237,-792.912"/>
</g>
<!-- product -->
<g id="node5" class="node"><title>product</title>
<polygon fill="none" stroke="black" points="319.5,-732.5 319.5,-819.5 396.5,-819.5 396.5,-732.5 319.5,-732.5"/>
<text text-anchor="start" x="337" y="-804.3" font-family="Times,serif" font-size="14.00">product</text>
<polyline fill="none" stroke="black" points="319.5,-796.5 396.5,-796.5 "/>
<text text-anchor="start" x="350.5" y="-782.3" font-family="Times,serif" text-decoration="underline" font-size="14.00">ID</text>
<text text-anchor="start" x="327.5" y="-768.3" font-family="Times,serif" font-size="14.00">description</text>
<text text-anchor="start" x="342.5" y="-754.3" font-family="Times,serif" font-size="14.00">finish</text>
<text text-anchor="start" x="344" y="-740.3" font-family="Times,serif" font-size="14.00">price</text>
</g>
<!-- assemble -->
<g id="node17" class="node"><title>assemble</title>
<polygon fill="none" stroke="black" points="167,-684 105.625,-666 167,-648 228.375,-666 167,-684"/>
<text text-anchor="middle" x="167" y="-662.3" font-family="Times,serif" font-size="14.00">assemble</text>
</g>
<!-- product&#45;&#45;assemble -->
<g id="edge31" class="edge"><title>product&#45;&#45;assemble</title>
<path fill="none" stroke="black" d="M318.364,-754.886C278.25,-732.203 217.096,-697.624 185.871,-679.968"/>
<path fill="none" stroke="white" d="M319.348,-753.145C279.234,-730.462 218.081,-695.883 186.855,-678.227"/>
<path fill="none" stroke="black" d="M320.333,-751.404C280.219,-728.721 219.065,-694.142 187.839,-676.486"/>
</g>
<!-- produce -->
<g id="node18" class="node"><title>produce</title>
<polygon fill="none" stroke="black" points="340,-684 284.776,-666 340,-648 395.224,-666 340,-684"/>
<text text-anchor="middle" x="340" y="-662.3" font-family="Times,serif" font-size="14.00">produce</text>
</g>
<!-- product&#45;&#45;produce -->
<g id="edge25" class="edge"><title>product&#45;&#45;produce</title>
<path fill="none" stroke="black" d="M348.913,-732.644C346.044,-715.428 342.907,-696.605 340.74,-683.607"/>
<path fill="none" stroke="white" d="M350.886,-732.316C348.017,-715.099 344.879,-696.276 342.713,-683.278"/>
<path fill="none" stroke="black" d="M352.859,-731.987C349.989,-714.77 346.852,-695.947 344.686,-682.95"/>
</g>
<!-- group -->
<g id="node19" class="node"><title>group</title>
<polygon fill="none" stroke="black" points="457,-684 412.821,-666 457,-648 501.179,-666 457,-684"/>
<text text-anchor="middle" x="457" y="-662.3" font-family="Times,serif" font-size="14.00">group</text>
</g>
<!-- product&#45;&#45;group -->
<g id="edge24" class="edge"><title>product&#45;&#45;group</title>
<path fill="none" stroke="black" d="M395.085,-731.584C412.676,-712.394 432.207,-691.087 444.178,-678.028"/>
<path fill="none" stroke="white" d="M396.559,-732.935C414.15,-713.745 433.681,-692.439 445.652,-679.379"/>
<path fill="none" stroke="black" d="M398.034,-734.287C415.624,-715.097 435.155,-693.79 447.127,-680.731"/>
</g>
<!-- customer -->
<g id="node6" class="node"><title>customer</title>
<polygon fill="none" stroke="black" points="495.5,-416.5 495.5,-503.5 562.5,-503.5 562.5,-416.5 495.5,-416.5"/>
<text text-anchor="start" x="503.5" y="-488.3" font-family="Times,serif" font-size="14.00">customer</text>
<polyline fill="none" stroke="black" points="495.5,-480.5 562.5,-480.5 "/>
<text text-anchor="start" x="521.5" y="-466.3" font-family="Times,serif" text-decoration="underline" font-size="14.00">ID</text>
<text text-anchor="start" x="513.5" y="-452.3" font-family="Times,serif" font-size="14.00">name</text>
<text text-anchor="start" x="508.5" y="-438.3" font-family="Times,serif" font-size="14.00">address</text>
<text text-anchor="start" x="504.5" y="-424.3" font-family="Times,serif" font-size="14.00">zip_code</text>
</g>
<!-- request_per_product_line -->
<g id="node21" class="node"><title>request_per_product_line</title>
<polygon fill="none" stroke="black" points="495,-361 352.796,-343 495,-325 637.204,-343 495,-361"/>
<text text-anchor="middle" x="495" y="-339.3" font-family="Times,serif" font-size="14.00">request_per_product_line</text>
</g>
<!-- customer&#45;&#45;request_per_product_line -->
<g id="edge6" class="edge"><title>customer&#45;&#45;request_per_product_line</title>
<path fill="none" stroke="black" d="M516.34,-416.178C510.6,-396.765 504.153,-374.959 499.862,-360.446"/>
</g>
<!-- product_line -->
<g id="node7" class="node"><title>product_line</title>
<polygon fill="none" stroke="black" points="415.5,-540.5 415.5,-599.5 500.5,-599.5 500.5,-540.5 415.5,-540.5"/>
<text text-anchor="start" x="423.5" y="-584.3" font-family="Times,serif" font-size="14.00">product_line</text>
<polyline fill="none" stroke="black" points="415.5,-576.5 500.5,-576.5 "/>
<text text-anchor="start" x="450.5" y="-562.3" font-family="Times,serif" text-decoration="underline" font-size="14.00">ID</text>
<text text-anchor="start" x="442.5" y="-548.3" font-family="Times,serif" font-size="14.00">name</text>
</g>
<!-- product_line&#45;&#45;customer -->
<!-- product_line&#45;&#45;request_per_product_line -->
<g id="edge7" class="edge"><title>product_line&#45;&#45;request_per_product_line</title>
<path fill="none" stroke="black" d="M462.761,-540.046C470.588,-492.451 485.93,-399.153 492.215,-360.937"/>
</g>
<!-- order -->
<g id="node8" class="node"><title>order</title>
<polygon fill="none" stroke="black" points="570.5,-980.5 570.5,-1053.5 631.5,-1053.5 631.5,-980.5 570.5,-980.5"/>
<text text-anchor="start" x="586.5" y="-1038.3" font-family="Times,serif" font-size="14.00">order</text>
<polyline fill="none" stroke="black" points="570.5,-1030.5 631.5,-1030.5 "/>
<text text-anchor="start" x="593.5" y="-1016.3" font-family="Times,serif" text-decoration="underline" font-size="14.00">ID</text>
<text text-anchor="start" x="589.5" y="-1002.3" font-family="Times,serif" font-size="14.00">data</text>
<text text-anchor="start" x="578.5" y="-988.3" font-family="Times,serif" font-size="14.00">quantity</text>
</g>
<!-- request -->
<g id="node20" class="node"><title>request</title>
<polygon fill="none" stroke="black" points="503,-918 451.791,-900 503,-882 554.209,-900 503,-918"/>
<text text-anchor="middle" x="503" y="-896.3" font-family="Times,serif" font-size="14.00">request</text>
</g>
<!-- order&#45;&#45;request -->
<g id="edge3" class="edge"><title>order&#45;&#45;request</title>
<path fill="none" stroke="black" d="M570.529,-980.244C551.426,-957.826 527.915,-930.237 514.275,-914.231"/>
</g>
<!-- order&#45;&#45;request_per_product_line -->
<g id="edge5" class="edge"><title>order&#45;&#45;request_per_product_line</title>
<path fill="none" stroke="black" d="M631.797,-996.085C684.178,-959.514 785,-876.232 785,-777 785,-777 785,-777 785,-569 785,-445.694 619.316,-380.244 538.416,-355.636"/>
</g>
<!-- for -->
<g id="node22" class="node"><title>for</title>
<polygon fill="none" stroke="black" points="376,-918 346.88,-900 376,-882 405.12,-900 376,-918"/>
<text text-anchor="middle" x="376" y="-896.3" font-family="Times,serif" font-size="14.00">for</text>
</g>
<!-- order&#45;&#45;for -->
<g id="edge1" class="edge"><title>order&#45;&#45;for</title>
<path fill="none" stroke="black" d="M570.378,-1003.58C538.08,-990.137 486.01,-967.445 443,-944 423.583,-933.416 402.265,-919.265 389.008,-910.14"/>
</g>
<!-- submit -->
<g id="node23" class="node"><title>submit</title>
<polygon fill="none" stroke="black" points="707,-794 657.549,-776 707,-758 756.451,-776 707,-794"/>
<text text-anchor="middle" x="707" y="-772.3" font-family="Times,serif" font-size="14.00">submit</text>
</g>
<!-- order&#45;&#45;submit -->
<g id="edge22" class="edge"><title>order&#45;&#45;submit</title>
<path fill="none" stroke="black" d="M630.285,-987.785C642.828,-975.339 656.575,-959.461 665.234,-943.061 691.882,-893.193 700.949,-824.528 703.795,-793.434"/>
<path fill="none" stroke="white" d="M631.695,-989.204C644.34,-976.648 658.087,-960.77 667,-944 693.864,-893.454 702.932,-824.79 705.787,-793.616"/>
<path fill="none" stroke="black" d="M633.104,-990.623C645.852,-977.957 659.599,-962.08 668.766,-944.939 695.847,-893.716 704.915,-825.052 707.779,-793.799"/>
</g>
<!-- work_center -->
<g id="node9" class="node"><title>work_center</title>
<polygon fill="none" stroke="black" points="294,-540.5 294,-599.5 378,-599.5 378,-540.5 294,-540.5"/>
<text text-anchor="start" x="302" y="-584.3" font-family="Times,serif" font-size="14.00">work_center</text>
<polyline fill="none" stroke="black" points="294,-576.5 378,-576.5 "/>
<text text-anchor="start" x="328.5" y="-562.3" font-family="Times,serif" text-decoration="underline" font-size="14.00">ID</text>
<text text-anchor="start" x="314" y="-548.3" font-family="Times,serif" font-size="14.00">location</text>
</g>
<!-- work -->
<g id="node24" class="node"><title>work</title>
<polygon fill="none" stroke="black" points="329,-478 288.835,-460 329,-442 369.165,-460 329,-478"/>
<text text-anchor="middle" x="329" y="-456.3" font-family="Times,serif" font-size="14.00">work</text>
</g>
<!-- work_center&#45;&#45;work -->
<g id="edge26" class="edge"><title>work_center&#45;&#45;work</title>
<path fill="none" stroke="black" d="M332.147,-540.471C330.851,-520.474 329.166,-494.48 328.085,-477.797"/>
<path fill="none" stroke="white" d="M334.143,-540.342C332.846,-520.344 331.162,-494.351 330.08,-477.668"/>
<path fill="none" stroke="black" d="M336.138,-540.212C334.842,-520.215 333.157,-494.221 332.076,-477.538"/>
</g>
<!-- employee -->
<g id="node10" class="node"><title>employee</title>
<polygon fill="none" stroke="black" points="188,-306.5 188,-379.5 258,-379.5 258,-306.5 188,-306.5"/>
<text text-anchor="start" x="196" y="-364.3" font-family="Times,serif" font-size="14.00">employee</text>
<polyline fill="none" stroke="black" points="188,-356.5 258,-356.5 "/>
<text text-anchor="start" x="215.5" y="-342.3" font-family="Times,serif" text-decoration="underline" font-size="14.00">ID</text>
<text text-anchor="start" x="207.5" y="-328.3" font-family="Times,serif" font-size="14.00">name</text>
<text text-anchor="start" x="202.5" y="-314.3" font-family="Times,serif" font-size="14.00">address</text>
</g>
<!-- have -->
<g id="node25" class="node"><title>have</title>
<polygon fill="none" stroke="black" points="104,-270 65.5936,-252 104,-234 142.406,-252 104,-270"/>
<text text-anchor="middle" x="104" y="-248.3" font-family="Times,serif" font-size="14.00">have</text>
</g>
<!-- employee&#45;&#45;have -->
<g id="edge29" class="edge"><title>employee&#45;&#45;have</title>
<path fill="none" stroke="black" d="M186.742,-317.38C163.432,-299.947 134.065,-277.983 116.964,-265.194"/>
<path fill="none" stroke="white" d="M187.94,-315.778C164.63,-298.345 135.263,-276.381 118.162,-263.592"/>
<path fill="none" stroke="black" d="M189.138,-314.177C165.828,-296.743 136.461,-274.78 119.36,-261.99"/>
</g>
<!-- supervise -->
<g id="node26" class="node"><title>supervise</title>
<polygon fill="none" stroke="black" points="223,-270 160.746,-252 223,-234 285.254,-252 223,-270"/>
<text text-anchor="middle" x="223" y="-248.3" font-family="Times,serif" font-size="14.00">supervise</text>
</g>
<!-- employee&#45;&#45;supervise -->
<g id="edge28" class="edge"><title>employee&#45;&#45;supervise</title>
<path fill="none" stroke="black" d="M221,-306.313C221,-293.933 221,-280.605 221,-270.371"/>
<path fill="none" stroke="white" d="M223,-306.313C223,-293.933 223,-280.605 223,-270.371"/>
<path fill="none" stroke="black" d="M225,-306.313C225,-293.933 225,-280.605 225,-270.371"/>
</g>
<!-- manager -->
<g id="node11" class="node"><title>manager</title>
<polygon fill="none" stroke="black" points="70,-547 70,-593 134,-593 134,-547 70,-547"/>
<text text-anchor="start" x="78" y="-577.8" font-family="Times,serif" font-size="14.00">manager</text>
<polyline fill="none" stroke="black" points="70,-570 134,-570 "/>
<text text-anchor="start" x="100" y="-554.8" font-family="Times,serif" font-size="14.00"> </text>
</g>
<!-- manager_who -->
<g id="node27" class="node"><title>manager_who</title>
<polygon fill="none" stroke="black" points="113,-478.07 26.5938,-460 113,-441.93 199.406,-460 113,-478.07"/>
<polygon fill="none" stroke="black" points="113,-482.172 6.98021,-460 113,-437.828 219.02,-460 113,-482.172"/>
<text text-anchor="middle" x="113" y="-456.3" font-family="Times,serif" font-size="14.00">manager_who</text>
</g>
<!-- manager&#45;&#45;manager_who -->
<g id="edge30" class="edge"><title>manager&#45;&#45;manager_who</title>
<path fill="none" stroke="black" d="M102.263,-546.681C104.199,-527.674 106.971,-500.455 108.873,-481.783"/>
<path fill="none" stroke="white" d="M104.253,-546.884C106.189,-527.877 108.961,-500.658 110.863,-481.986"/>
<path fill="none" stroke="black" d="M106.242,-547.087C108.178,-528.079 110.95,-500.861 112.852,-482.188"/>
</g>
<!-- supervisor -->
<g id="node12" class="node"><title>supervisor</title>
<polygon fill="none" stroke="black" points="199.5,-151 199.5,-197 272.5,-197 272.5,-151 199.5,-151"/>
<text text-anchor="start" x="207.5" y="-181.8" font-family="Times,serif" font-size="14.00">supervisor</text>
<polyline fill="none" stroke="black" points="199.5,-174 272.5,-174 "/>
<text text-anchor="start" x="234" y="-158.8" font-family="Times,serif" font-size="14.00"> </text>
</g>
<!-- supervisor_who -->
<g id="node28" class="node"><title>supervisor_who</title>
<polygon fill="none" stroke="black" points="275,-110.059 180.291,-92 275,-73.9414 369.709,-92 275,-110.059"/>
<polygon fill="none" stroke="black" points="275,-114.144 158.867,-92 275,-69.8565 391.133,-92 275,-114.144"/>
<text text-anchor="middle" x="275" y="-88.3" font-family="Times,serif" font-size="14.00">supervisor_who</text>
</g>
<!-- supervisor&#45;&#45;supervisor_who -->
<g id="edge27" class="edge"><title>supervisor&#45;&#45;supervisor_who</title>
<path fill="none" stroke="black" d="M245.066,-149.839C250.926,-137.819 258.09,-123.123 263.723,-111.569"/>
<path fill="none" stroke="white" d="M246.864,-150.716C252.724,-138.695 259.888,-123.999 265.52,-112.446"/>
<path fill="none" stroke="black" d="M248.661,-151.592C254.521,-139.571 261.686,-124.876 267.318,-113.322"/>
</g>
<!-- skill -->
<g id="node13" class="node"><title>skill</title>
<polygon fill="none" stroke="black" points="77,-320 77,-366 131,-366 131,-320 77,-320"/>
<text text-anchor="start" x="92" y="-350.8" font-family="Times,serif" font-size="14.00">skill</text>
<polyline fill="none" stroke="black" points="77,-343 131,-343 "/>
<text text-anchor="start" x="88.5" y="-328.8" font-family="Times,serif" text-decoration="underline" font-size="14.00">name</text>
</g>
<!-- skill&#45;&#45;have -->
<g id="edge10" class="edge"><title>skill&#45;&#45;have</title>
<path fill="none" stroke="black" d="M104,-320C104,-304.557 104,-284.209 104,-270.006"/>
</g>
<!-- supply&#45;&#45;assemble -->
<!-- serve&#45;&#45;sales_territory -->
<g id="edge19" class="edge"><title>serve&#45;&#45;sales_territory</title>
<path fill="none" stroke="black" d="M597.681,-758.394C599.104,-744.419 601.207,-723.774 603.056,-705.619"/>
<path fill="none" stroke="white" d="M599.671,-758.597C601.094,-744.622 603.197,-723.976 605.046,-705.822"/>
<path fill="none" stroke="black" d="M601.66,-758.8C603.084,-744.824 605.187,-724.179 607.036,-706.025"/>
<polygon fill="black" stroke="black" points="608.538,-706.075 606.07,-695.771 601.574,-705.365 608.538,-706.075"/>
</g>
<!-- business&#45;&#45;customer -->
<g id="edge12" class="edge"><title>business&#45;&#45;customer</title>
<path fill="none" stroke="black" d="M603.235,-555.322C593.049,-542.38 577.214,-522.261 562.781,-503.922"/>
</g>
<!-- assemble&#45;&#45;raw_material -->
<g id="edge32" class="edge"><title>assemble&#45;&#45;raw_material</title>
<path fill="none" stroke="black" d="M172.467,-682.554C180.243,-717.927 199.125,-803.824 210.599,-856.018"/>
<path fill="none" stroke="white" d="M170.514,-682.983C178.29,-718.356 197.172,-804.253 208.646,-856.448"/>
<path fill="none" stroke="black" d="M168.56,-683.413C176.336,-718.786 195.219,-804.683 206.692,-856.877"/>
</g>
<!-- quantity -->
<g id="node30" class="node"><title>quantity</title>
<polygon fill="none" stroke="black" points="213.25,-588 152.75,-588 152.75,-552 213.25,-552 213.25,-588"/>
<text text-anchor="middle" x="183" y="-566.3" font-family="Times,serif" font-size="14.00">quantity</text>
</g>
<!-- assemble&#45;&#45;quantity -->
<g id="edge35" class="edge"><title>assemble&#45;&#45;quantity</title>
<path fill="none" stroke="black" stroke-dasharray="5,2" d="M169.787,-648.626C172.67,-631.689 177.153,-605.353 180.083,-588.139"/>
</g>
<!-- produce&#45;&#45;work_center -->
<g id="edge11" class="edge"><title>produce&#45;&#45;work_center</title>
<path fill="none" stroke="black" d="M339.285,-648.195C338.714,-634.781 337.901,-615.678 337.227,-599.832"/>
</g>
<!-- group&#45;&#45;product_line -->
<g id="edge14" class="edge"><title>group&#45;&#45;product_line</title>
<path fill="none" stroke="black" d="M457.183,-647.759C457.296,-637.136 457.446,-623.068 457.586,-609.88"/>
<polygon fill="black" stroke="black" points="461.089,-609.611 457.696,-599.574 454.09,-609.536 461.089,-609.611"/>
</g>
<!-- request&#45;&#45;product -->
<g id="edge23" class="edge"><title>request&#45;&#45;product</title>
<path fill="none" stroke="black" d="M487.279,-888.387C466.076,-870.546 425.75,-836.617 395.498,-811.164"/>
<path fill="none" stroke="white" d="M488.567,-886.856C467.363,-869.016 427.037,-835.087 396.786,-809.634"/>
<path fill="none" stroke="black" d="M489.854,-885.326C468.651,-867.486 428.325,-833.556 398.074,-808.103"/>
</g>
<!-- request&#45;&#45;customer -->
<g id="edge4" class="edge"><title>request&#45;&#45;customer</title>
<path fill="none" stroke="black" d="M504.003,-882.098C507.736,-819.212 520.893,-597.568 526.471,-503.607"/>
</g>
<!-- request_per_product_line&#45;&#45;product -->
<g id="edge18" class="edge"><title>request_per_product_line&#45;&#45;product</title>
<path fill="none" stroke="black" d="M407.751,-351.923C362.323,-359.904 309.931,-377.978 281.613,-417.183 196.071,-531.85 252.806,-636.359 277.841,-695.217 285.076,-712.489 298.843,-728.227 312.792,-740.703"/>
<path fill="none" stroke="white" d="M407.404,-349.953C361.671,-358.014 309.279,-376.088 280,-416 194.313,-532.804 251.048,-637.314 276,-696 283.57,-713.805 297.338,-729.544 311.458,-742.192"/>
<path fill="none" stroke="black" d="M407.057,-347.984C361.019,-356.123 308.627,-374.197 278.387,-414.817 192.556,-533.759 249.291,-638.268 274.159,-696.783 282.065,-715.122 295.833,-730.86 310.123,-743.682"/>
<polygon fill="black" stroke="black" points="309.425,-745.059 319.301,-748.895 313.973,-739.738 309.425,-745.059"/>
</g>
<!-- for&#45;&#45;product -->
<g id="edge2" class="edge"><title>for&#45;&#45;product</title>
<path fill="none" stroke="black" d="M373.647,-883.051C371.283,-867.033 367.539,-841.65 364.305,-819.734"/>
</g>
<!-- submit&#45;&#45;customer -->
<g id="edge13" class="edge"><title>submit&#45;&#45;customer</title>
<path fill="none" stroke="black" d="M709.791,-759C715.968,-718.348 726.72,-609.407 679,-540 654.11,-503.798 607.25,-482.955 572.501,-471.868"/>
<polygon fill="black" stroke="black" points="573.183,-468.417 562.598,-468.864 571.152,-475.116 573.183,-468.417"/>
</g>
<!-- work&#45;&#45;employee -->
<g id="edge9" class="edge"><title>work&#45;&#45;employee</title>
<path fill="none" stroke="black" d="M317.656,-446.693C303.022,-430.817 276.942,-402.522 255.858,-379.648"/>
</g>
<!-- supervise&#45;&#45;supervisor -->
<g id="edge15" class="edge"><title>supervise&#45;&#45;supervisor</title>
<path fill="none" stroke="black" d="M225.821,-234.509C227.192,-226.494 228.888,-216.575 230.501,-207.149"/>
<polygon fill="black" stroke="black" points="233.962,-207.674 232.198,-197.227 227.062,-206.493 233.962,-207.674"/>
</g>
<!-- manager_who&#45;&#45;employee -->
<g id="edge17" class="edge"><title>manager_who&#45;&#45;employee</title>
<path fill="none" stroke="black" d="M130.188,-441.031C143.95,-426.643 163.835,-405.854 181.672,-387.207"/>
<polygon fill="black" stroke="black" points="184.265,-389.559 188.648,-379.914 179.206,-384.721 184.265,-389.559"/>
</g>
<!-- supervisor_who&#45;&#45;employee -->
<g id="edge16" class="edge"><title>supervisor_who&#45;&#45;employee</title>
<path fill="none" stroke="black" d="M283.076,-112.721C295.575,-146.358 315.988,-216.386 294,-270 287.88,-284.923 277.008,-298.408 265.583,-309.565"/>
<polygon fill="black" stroke="black" points="262.997,-307.189 258.04,-316.553 267.754,-312.325 262.997,-307.189"/>
</g>
<!-- unit_price -->
<g id="node29" class="node"><title>unit_price</title>
<polygon fill="none" stroke="black" points="70.25,-918 -0.25,-918 -0.25,-882 70.25,-882 70.25,-918"/>
<text text-anchor="middle" x="35" y="-896.3" font-family="Times,serif" font-size="14.00">unit_price</text>
</g>
<!-- unit_price&#45;&#45;supply -->
<g id="edge34" class="edge"><title>unit_price&#45;&#45;supply</title>
<path fill="none" stroke="black" stroke-dasharray="5,2" d="M47.4216,-881.779C65.046,-857.345 96.9573,-813.105 113.091,-790.737"/>
</g>
</g>
</svg>
